#N canvas 789 409 450 300 10;
#X obj 138 103 f;
#X obj 208 110 + 1;
#X floatatom 138 161 5 0 0 0 - - -;
#X obj 208 132 mod \$1;
#X obj 98 36 inlet next;
#X obj 138 204 outlet num;
#X obj 193 34 r reset_all;
#X floatatom 179 70 5 0 0 0 - - -;
#X connect 0 0 1 0;
#X connect 0 0 2 0;
#X connect 1 0 3 0;
#X connect 2 0 5 0;
#X connect 3 0 0 1;
#X connect 4 0 0 0;
#X connect 6 0 7 0;
#X connect 7 0 0 1;
