#N canvas 245 411 618 374 10;
#X obj 51 41 inlet~ 1_l;
#X obj 126 41 inlet~ 1_r;
#X obj 226 40 inlet~ 2_l;
#X obj 413 38 inlet params;
#X obj 165 315 outlet~ l;
#X obj 232 315 outlet~ r;
#X obj 155 105 line~;
#X obj 414 84 unpack f f f;
#X obj 395 125 pack f f;
#X obj 479 127 pack f f;
#X obj 320 105 line~;
#X obj 301 40 inlet~ 2_r;
#X obj 75 176 *~;
#X obj 133 176 *~;
#X obj 237 175 *~;
#X obj 295 175 *~;
#X connect 0 0 12 0;
#X connect 1 0 13 0;
#X connect 2 0 14 0;
#X connect 3 0 7 0;
#X connect 6 0 12 1;
#X connect 6 0 13 1;
#X connect 7 0 8 0;
#X connect 7 1 9 0;
#X connect 7 2 8 1;
#X connect 7 2 9 1;
#X connect 8 0 6 0;
#X connect 9 0 10 0;
#X connect 10 0 14 1;
#X connect 10 0 15 1;
#X connect 11 0 15 0;
#X connect 12 0 4 0;
#X connect 13 0 5 0;
#X connect 14 0 4 0;
#X connect 15 0 5 0;
