#N canvas 33 70 1356 643 10;
#X obj 1126 537 dac~;
#X obj 41 48 bng 15 250 50 0 empty empty empty 17 7 0 10 -262144 -1
-1;
#X obj 39 457 r to_mainmenu;
#X obj 142 457 r to_game;
#X obj 41 79 s start;
#X obj 34 115 r start;
#X obj 27 185 throw~ menu_l;
#X obj 114 186 throw~ menu_r;
#X obj 100 521 s main_cross;
#X msg 57 484 1 0 6000;
#X msg 134 483 0 1 6000;
#X obj 38 334 throw~ game_l;
#X obj 215 334 throw~ game_r;
#X obj 38 278 r start;
#N canvas 169 176 565 279 main_cross 0;
#X obj 112 49 crossfade~ o________________O;
#X obj 16 13 catch~ menu_l;
#X obj 105 12 catch~ menu_r;
#X obj 193 12 catch~ game_r;
#X obj 282 11 catch~ game_l;
#X obj 372 11 r main_cross;
#X obj 112 125 outlet~ l;
#X obj 283 129 outlet~ r;
#X obj 33 69 catch~ amb_l;
#X obj 323 78 catch~ amb_r;
#X connect 0 0 6 0;
#X connect 0 1 7 0;
#X connect 1 0 0 0;
#X connect 2 0 0 1;
#X connect 3 0 0 2;
#X connect 4 0 0 3;
#X connect 5 0 0 4;
#X connect 8 0 6 0;
#X connect 9 0 7 0;
#X restore 1068 446 pd main_cross;
#X obj 330 332 throw~ game_l;
#X obj 507 332 throw~ game_r;
#X obj 330 281 r start;
#X obj 418 281 r level_up_3;
#X obj 39 370 r start;
#X obj 39 419 throw~ game_l;
#X obj 216 419 throw~ game_r;
#X obj 198 101 r start;
#X obj 210 237 throw~ game_l;
#X obj 303 235 throw~ game_r;
#X obj 240 11 bng 15 250 50 0 empty empty empty 17 7 0 10 -262144 -1
-1;
#X obj 160 8 bng 15 250 50 0 empty empty empty 17 7 0 10 -262144 -1
-1;
#X obj 400 11 bng 15 250 50 0 empty empty empty 17 7 0 10 -262144 -1
-1;
#X obj 320 11 bng 15 250 50 0 empty empty empty 17 7 0 10 -262144 -1
-1;
#X obj 126 281 r level_up_1;
#X obj 127 371 r level_up_2;
#X obj 160 30 s level_up_1;
#X obj 240 30 s level_up_2;
#X obj 320 30 s level_up_3;
#X obj 400 30 s level_up_4;
#X obj 317 100 bang;
#X obj 155 118 bang;
#X obj 331 372 r start;
#X obj 449 370 r level_up_4;
#X obj 350 492 throw~ game_l;
#X obj 438 493 throw~ game_r;
#X obj 160 72 s reset_all;
#X obj 160 52 bng 15 250 50 0 empty empty empty 17 7 0 10 -262144 -1
-1;
#X obj 215 279 r reset_all;
#X obj 216 370 r reset_all;
#X obj 500 267 r reset_all;
#X obj 533 359 r reset_all;
#X obj 878 369 throw~ game_l;
#X obj 973 370 throw~ game_r;
#X obj 891 296 r start;
#X obj 21 18 loadbang;
#X msg 61 42 \; pd dsp 1;
#X obj 705 251 throw~ game_l;
#X obj 815 251 throw~ game_r;
#X obj 704 162 r start;
#X obj 854 163 r level_up_4;
#X obj 754 162 r loop_start_4;
#X obj 568 417 s loop_start_4;
#X msg 81 8 \; pd dsp 0;
#X obj 241 51 bng 15 250 50 0 empty empty empty 17 7 0 10 -262144 -1
-1;
#X obj 34 144 stereo_loop~ 00_01;
#X obj 198 130 stereo_loop~ 00_02;
#X obj 704 190 oneshot_sync~ 04_u1;
#X obj 330 309 track~ 02_01 02_02 02_03 02_04;
#X obj 331 394 track_seq~ 04_01 04_02 04_03 04_04 04_05;
#X obj 891 319 stereo_loop~ 99_01;
#X obj 943 253 throw~ game_l;
#X obj 1054 254 throw~ game_r;
#X obj 943 165 r start;
#X obj 998 166 r loop_start_4;
#X obj 943 193 oneshot_sync~ 02_u1;
#X obj 1093 166 r level_up_2;
#X obj 649 130 throw~ game_l;
#X obj 760 131 throw~ game_r;
#X obj 649 43 r start;
#X obj 704 12 r loop_start_4;
#X obj 649 71 oneshot_sync~ 01_u1;
#X obj 717 39 r level_up_1;
#X obj 886 131 throw~ game_l;
#X obj 997 132 throw~ game_r;
#X obj 886 44 r start;
#X obj 941 45 r loop_start_4;
#X obj 1036 45 r level_up_3;
#X obj 886 72 oneshot_sync~ 03_u1;
#X obj 814 285 r win_game;
#X obj 803 41 r end_hit;
#X obj 868 187 r end_hit;
#X obj 1051 69 r end_hit;
#X obj 1099 191 r end_hit;
#X obj 485 5 bng 15 250 50 0 empty empty empty 17 7 0 10 -262144 -1
-1;
#X obj 485 32 s win_game;
#X msg 776 325 1;
#X msg 815 385 0;
#X obj 735 351 f 0;
#X floatatom 735 381 5 0 0 0 - - -;
#X obj 691 322 bang;
#X obj 702 407 spigot;
#X obj 702 432 bang;
#X obj 812 312 s end_hit;
#X obj 702 460 s stop_all;
#X obj 691 295 r loop_start_4;
#X obj 608 357 r stop_all;
#X obj 224 208 stereo_vol~;
#X obj 316 150 r reset_all;
#X obj 341 173 r stop_all;
#X msg 268 174 1 500;
#X obj 267 151 r start;
#X msg 336 198 0 100;
#X obj 359 452 stereo_vol~;
#X obj 486 419 r reset_all;
#X obj 511 442 r stop_all;
#X obj 437 420 r start;
#X msg 506 467 0 100;
#X obj 447 112 r start;
#X obj 568 115 bang;
#X obj 447 141 stereo_loop~ 00_00;
#X obj 411 231 throw~ amb_l;
#X obj 506 233 throw~ amb_r;
#X obj 469 190 stereo_vol~;
#X obj 578 136 r start;
#X obj 38 307 track~ 01_01 01_02 01_03 01_04;
#X obj 39 395 track~ 03_01 03_02 03_03 03_04;
#X obj 990 296 r hit_1;
#X obj 878 473 throw~ game_l;
#X obj 973 474 throw~ game_r;
#X obj 891 400 r start;
#X obj 878 577 throw~ game_l;
#X obj 973 578 throw~ game_r;
#X obj 891 504 r start;
#X obj 693 573 throw~ game_l;
#X obj 788 574 throw~ game_r;
#X obj 706 500 r start;
#X obj 990 400 r hit_2;
#X obj 805 500 r hit_3;
#X obj 990 504 r hit_4;
#X obj 891 423 stereo_loop~ 99_02;
#X obj 706 523 stereo_loop~ 99_03;
#X obj 891 527 stereo_loop~ 99_04;
#X obj 241 72 s hit_1;
#X obj 300 51 bng 15 250 50 0 empty empty empty 17 7 0 10 -262144 -1
-1;
#X obj 356 55 bng 15 250 50 0 empty empty empty 17 7 0 10 -262144 -1
-1;
#X obj 411 51 bng 15 250 50 0 empty empty empty 17 7 0 10 -262144 -1
-1;
#X obj 300 72 s hit_2;
#X obj 356 76 s hit_3;
#X obj 411 72 s hit_4;
#X obj 1070 385 throw~ game_l;
#X obj 1181 386 throw~ game_r;
#X obj 1070 300 r start;
#X obj 1125 301 r loop_start_4;
#X obj 1235 325 r end_hit;
#X obj 1070 328 oneshot_sync~ 99_99;
#X obj 1112 497 stereo_vol~;
#X obj 547 56 bng 15 250 50 0 empty empty empty 17 7 0 10 -262144 -1
-1;
#X obj 547 76 s quit_game;
#X obj 1157 425 r start;
#X obj 1224 425 r quit_game;
#X obj 890 448 *~ 0.4;
#X obj 940 445 *~ 0.4;
#X obj 890 344 *~ 0.4;
#X obj 940 341 *~ 0.4;
#X obj 890 552 *~ 0.4;
#X obj 940 551 *~ 0.4;
#X obj 704 548 *~ 0.4;
#X obj 753 547 *~ 0.4;
#X msg 1230 459 0 5000;
#X msg 1158 458 0.75 3000;
#X obj 943 223 *~ 0.75;
#X obj 1056 224 *~ 0.75;
#X obj 1069 357 *~ 0.75;
#X obj 1170 362 *~ 0.75;
#X obj 884 102 *~ 0.75;
#X obj 987 100 *~ 0.75;
#X obj 654 102 *~ 0.75;
#X obj 763 99 *~ 0.75;
#X msg 438 443 1.2 500;
#X msg 579 158 0.25 1000;
#X obj 700 222 *~ 0.66;
#X obj 809 218 *~ 0.66;
#X connect 1 0 4 0;
#X connect 2 0 9 0;
#X connect 3 0 10 0;
#X connect 5 0 60 0;
#X connect 5 0 60 1;
#X connect 9 0 8 0;
#X connect 10 0 8 0;
#X connect 13 0 120 0;
#X connect 14 0 151 0;
#X connect 14 1 151 1;
#X connect 17 0 63 0;
#X connect 18 0 63 1;
#X connect 19 0 121 0;
#X connect 22 0 61 0;
#X connect 22 0 61 1;
#X connect 25 0 32 0;
#X connect 26 0 31 0;
#X connect 27 0 34 0;
#X connect 28 0 33 0;
#X connect 29 0 120 1;
#X connect 30 0 121 1;
#X connect 35 0 61 1;
#X connect 36 0 60 1;
#X connect 37 0 64 0;
#X connect 38 0 64 1;
#X connect 42 0 41 0;
#X connect 43 0 120 2;
#X connect 44 0 121 2;
#X connect 45 0 63 2;
#X connect 46 0 64 2;
#X connect 49 0 65 0;
#X connect 50 0 1 0;
#X connect 50 0 51 0;
#X connect 54 0 62 0;
#X connect 55 0 62 2;
#X connect 56 0 62 1;
#X connect 59 0 138 0;
#X connect 60 0 6 0;
#X connect 60 1 7 0;
#X connect 60 2 36 0;
#X connect 61 0 102 0;
#X connect 61 1 102 1;
#X connect 61 2 35 0;
#X connect 62 0 176 0;
#X connect 62 1 177 0;
#X connect 63 0 15 0;
#X connect 63 1 16 0;
#X connect 64 0 108 0;
#X connect 64 1 108 1;
#X connect 64 2 57 0;
#X connect 65 0 158 0;
#X connect 65 1 159 0;
#X connect 68 0 70 0;
#X connect 69 0 70 1;
#X connect 70 0 166 0;
#X connect 70 1 167 0;
#X connect 71 0 70 2;
#X connect 74 0 76 0;
#X connect 75 0 76 1;
#X connect 76 0 172 0;
#X connect 76 1 173 0;
#X connect 77 0 76 2;
#X connect 80 0 83 0;
#X connect 81 0 83 1;
#X connect 82 0 83 2;
#X connect 83 0 170 0;
#X connect 83 1 171 0;
#X connect 84 0 91 0;
#X connect 84 0 98 0;
#X connect 85 0 76 2;
#X connect 86 0 62 2;
#X connect 87 0 83 2;
#X connect 88 0 70 2;
#X connect 89 0 90 0;
#X connect 91 0 93 1;
#X connect 92 0 93 1;
#X connect 93 0 94 0;
#X connect 94 0 96 1;
#X connect 95 0 93 0;
#X connect 95 0 96 0;
#X connect 96 0 92 0;
#X connect 96 0 97 0;
#X connect 97 0 99 0;
#X connect 100 0 95 0;
#X connect 101 0 64 2;
#X connect 102 0 23 0;
#X connect 102 1 24 0;
#X connect 103 0 105 0;
#X connect 104 0 107 0;
#X connect 105 0 102 2;
#X connect 106 0 105 0;
#X connect 107 0 102 2;
#X connect 108 0 39 0;
#X connect 108 1 40 0;
#X connect 109 0 174 0;
#X connect 110 0 112 0;
#X connect 111 0 174 0;
#X connect 112 0 108 2;
#X connect 113 0 115 0;
#X connect 113 0 115 1;
#X connect 114 0 115 1;
#X connect 115 0 118 0;
#X connect 115 1 118 1;
#X connect 115 2 114 0;
#X connect 118 0 116 0;
#X connect 118 1 117 0;
#X connect 119 0 175 0;
#X connect 120 0 11 0;
#X connect 120 1 12 0;
#X connect 121 0 20 0;
#X connect 121 1 21 0;
#X connect 122 0 65 1;
#X connect 125 0 135 0;
#X connect 128 0 137 0;
#X connect 131 0 136 0;
#X connect 132 0 135 1;
#X connect 133 0 136 1;
#X connect 134 0 137 1;
#X connect 135 0 156 0;
#X connect 135 1 157 0;
#X connect 136 0 162 0;
#X connect 136 1 163 0;
#X connect 137 0 160 0;
#X connect 137 1 161 0;
#X connect 139 0 142 0;
#X connect 140 0 143 0;
#X connect 141 0 144 0;
#X connect 147 0 150 0;
#X connect 148 0 150 1;
#X connect 149 0 150 2;
#X connect 150 0 168 0;
#X connect 150 1 169 0;
#X connect 151 0 0 0;
#X connect 151 1 0 1;
#X connect 152 0 153 0;
#X connect 154 0 165 0;
#X connect 155 0 164 0;
#X connect 156 0 123 0;
#X connect 157 0 124 0;
#X connect 158 0 47 0;
#X connect 159 0 48 0;
#X connect 160 0 126 0;
#X connect 161 0 127 0;
#X connect 162 0 129 0;
#X connect 163 0 130 0;
#X connect 164 0 151 2;
#X connect 165 0 151 2;
#X connect 166 0 66 0;
#X connect 167 0 67 0;
#X connect 168 0 145 0;
#X connect 169 0 146 0;
#X connect 170 0 78 0;
#X connect 171 0 79 0;
#X connect 172 0 72 0;
#X connect 173 0 73 0;
#X connect 174 0 108 2;
#X connect 175 0 118 2;
#X connect 176 0 52 0;
#X connect 177 0 53 0;
