#N canvas 863 472 504 389 10;
#X obj 42 223 stereo_loop~ \$1;
#X obj 42 276 outlet~ l;
#X obj 85 313 outlet~ r;
#X obj 245 16 inlet arm;
#X obj 42 189 inlet load;
#X obj 160 16 inlet trig;
#X msg 245 56 1;
#X msg 279 133 0;
#X obj 145 194 bang;
#X obj 199 99 f 0;
#X floatatom 199 129 5 0 0 0 - - -;
#X obj 160 53 bang;
#X obj 166 155 spigot;
#X connect 0 0 1 0;
#X connect 0 1 2 0;
#X connect 3 0 6 0;
#X connect 4 0 0 0;
#X connect 5 0 11 0;
#X connect 6 0 9 1;
#X connect 7 0 9 1;
#X connect 8 0 0 1;
#X connect 9 0 10 0;
#X connect 10 0 12 1;
#X connect 11 0 9 0;
#X connect 11 0 12 0;
#X connect 12 0 7 0;
#X connect 12 0 8 0;
