#N canvas 254 162 1104 570 10;
#X obj 185 424 outlet~ l;
#X obj 266 427 outlet~ r;
#X obj 222 38 inlet start;
#X obj 607 100 bang;
#X obj 282 226 stereo_vol~;
#X obj 61 203 stereo_vol~;
#X obj 398 224 stereo_vol~;
#X obj 175 224 stereo_vol~;
#X obj 184 386 catch~ \$0-l;
#X obj 267 385 catch~ \$0-r;
#X obj 12 234 throw~ \$0-l;
#X obj 153 267 throw~ \$0-l;
#X obj 255 278 throw~ \$0-l;
#X obj 394 284 throw~ \$0-l;
#X obj 218 320 throw~ \$0-r;
#X obj 336 313 throw~ \$0-r;
#X obj 93 234 throw~ \$0-r;
#X obj 476 287 throw~ \$0-r;
#X obj 607 75 inlet vol_up;
#X obj 607 126 count_n 4;
#X floatatom 609 153 5 0 0 0 - - -;
#X obj 609 214 route 0 1 2 3;
#X obj 102 176 r \$0-v1;
#X obj 215 192 r \$0-v2;
#X obj 329 200 r \$0-v3;
#X obj 452 194 r \$0-v4;
#X obj 563 244 s \$0-v1;
#X obj 613 244 s \$0-v2;
#X obj 663 244 s \$0-v3;
#X obj 714 244 s \$0-v4;
#X obj 355 63 bang;
#X obj 471 84 bang;
#X obj 161 41 bang;
#X obj 70 77 bang;
#X obj 131 138 stereo_loop~ \$2;
#X obj 780 74 inlet reset;
#X msg 780 109 0 4000;
#X obj 713 152 s \$0-v1;
#X obj 763 152 s \$0-v2;
#X obj 811 152 s \$0-v3;
#X obj 860 152 s \$0-v4;
#X obj 20 139 stereo_loop~ \$1;
#X obj 245 136 stereo_loop~ \$3;
#X obj 356 134 stereo_loop~ \$4;
#X obj 817 246 r stop_all;
#X obj 808 343 s \$0-v1;
#X obj 858 343 s \$0-v2;
#X obj 906 343 s \$0-v3;
#X obj 955 343 s \$0-v4;
#X msg 816 289 0 100;
#X msg 761 205 0;
#X obj 609 184 pack f 1 2500;
#X connect 2 0 34 0;
#X connect 2 0 34 1;
#X connect 2 0 41 0;
#X connect 2 0 41 1;
#X connect 2 0 42 0;
#X connect 2 0 42 1;
#X connect 2 0 43 0;
#X connect 2 0 43 1;
#X connect 3 0 19 0;
#X connect 4 0 12 0;
#X connect 4 1 15 0;
#X connect 5 0 10 0;
#X connect 5 1 16 0;
#X connect 6 0 13 0;
#X connect 6 1 17 0;
#X connect 7 0 11 0;
#X connect 7 1 14 0;
#X connect 8 0 0 0;
#X connect 9 0 1 0;
#X connect 18 0 3 0;
#X connect 19 0 20 0;
#X connect 20 0 51 0;
#X connect 21 0 26 0;
#X connect 21 1 27 0;
#X connect 21 2 28 0;
#X connect 21 3 29 0;
#X connect 22 0 5 2;
#X connect 23 0 7 2;
#X connect 24 0 4 2;
#X connect 25 0 6 2;
#X connect 30 0 42 1;
#X connect 31 0 43 1;
#X connect 32 0 34 1;
#X connect 33 0 41 1;
#X connect 34 0 7 0;
#X connect 34 1 7 1;
#X connect 34 2 32 0;
#X connect 35 0 36 0;
#X connect 36 0 37 0;
#X connect 36 0 38 0;
#X connect 36 0 39 0;
#X connect 36 0 40 0;
#X connect 41 0 5 0;
#X connect 41 1 5 1;
#X connect 41 2 33 0;
#X connect 42 0 4 0;
#X connect 42 1 4 1;
#X connect 42 2 30 0;
#X connect 43 0 6 0;
#X connect 43 1 6 1;
#X connect 43 2 31 0;
#X connect 44 0 49 0;
#X connect 44 0 50 0;
#X connect 49 0 45 0;
#X connect 49 0 46 0;
#X connect 49 0 47 0;
#X connect 49 0 48 0;
#X connect 51 0 21 0;
