#N canvas 249 22 1206 560 10;
#X obj 245 491 dac~;
#X obj 41 48 bng 15 250 50 0 empty empty empty 17 7 0 10 -262144 -1
-1;
#X obj 32 437 r to_mainmenu;
#X obj 135 437 r to_game;
#X obj 41 79 s start;
#X obj 39 114 r start;
#X obj 30 171 throw~ menu_l;
#X obj 119 171 throw~ menu_r;
#X obj 93 501 s main_cross;
#X msg 50 464 1 0 6000;
#X msg 127 463 0 1 6000;
#X obj 31 275 throw~ game_l;
#X obj 208 275 throw~ game_r;
#X obj 31 219 r start;
#N canvas 0 22 565 279 main_cross 0;
#X obj 112 49 crossfade~ o________________O;
#X obj 16 13 catch~ menu_l;
#X obj 105 12 catch~ menu_r;
#X obj 193 12 catch~ game_r;
#X obj 282 11 catch~ game_l;
#X obj 372 11 r main_cross;
#X obj 112 77 outlet~ l;
#X obj 283 77 outlet~ r;
#X connect 0 0 6 0;
#X connect 0 1 7 0;
#X connect 1 0 0 0;
#X connect 2 0 0 1;
#X connect 3 0 0 2;
#X connect 4 0 0 3;
#X connect 5 0 0 4;
#X restore 211 438 pd main_cross;
#X obj 323 273 throw~ game_l;
#X obj 500 273 throw~ game_r;
#X obj 323 222 r start;
#X obj 411 222 r level_up_3;
#X obj 32 311 r start;
#X obj 32 360 throw~ game_l;
#X obj 209 360 throw~ game_r;
#X obj 238 113 r start;
#X obj 218 168 throw~ game_l;
#X obj 311 169 throw~ game_r;
#X obj 241 36 bng 15 250 50 0 empty empty empty 17 7 0 10 -262144 -1
-1;
#X obj 161 33 bng 15 250 50 0 empty empty empty 17 7 0 10 -262144 -1
-1;
#X obj 401 36 bng 15 250 50 0 empty empty empty 17 7 0 10 -262144 -1
-1;
#X obj 321 36 bng 15 250 50 0 empty empty empty 17 7 0 10 -262144 -1
-1;
#X obj 119 222 r level_up_1;
#X obj 120 312 r level_up_2;
#X obj 161 55 s level_up_1;
#X obj 241 55 s level_up_2;
#X obj 321 55 s level_up_3;
#X obj 401 55 s level_up_4;
#X obj 357 112 bang;
#X obj 160 117 bang;
#X obj 324 313 r start;
#X obj 442 311 r level_up_4;
#X obj 324 359 throw~ game_l;
#X obj 442 359 throw~ game_r;
#X obj 482 55 s reset_all;
#X obj 482 35 bng 15 250 50 0 empty empty empty 17 7 0 10 -262144 -1
-1;
#X obj 208 220 r reset_all;
#X obj 209 311 r reset_all;
#X obj 500 221 r reset_all;
#X obj 561 310 r reset_all;
#X obj 427 175 throw~ game_l;
#X obj 522 176 throw~ game_r;
#X obj 440 102 r start;
#X obj 539 102 r hit;
#X obj 21 18 loadbang;
#X msg 61 42 \; pd dsp 1;
#X obj 626 155 throw~ game_l;
#X obj 737 156 throw~ game_r;
#X obj 626 102 r start;
#X obj 776 103 r level_up_4;
#X obj 681 103 r loop_start_4;
#X obj 561 358 s loop_start_4;
#X msg 81 8 \; pd dsp 0;
#X obj 211 464 *~ 0.85;
#X obj 286 463 *~ 0.85;
#X obj 558 55 s hit;
#X obj 558 34 bng 15 250 50 0 empty empty empty 17 7 0 10 -262144 -1
-1;
#X obj 439 150 *~ 0.33;
#X obj 489 149 *~ 0.33;
#X obj 39 143 stereo_loop~ 00_01;
#X obj 238 142 stereo_loop~ 00_02;
#X obj 626 130 oneshot_sync~ 04_u1;
#X obj 31 248 track~ 01_01 01_02 01_03 01_04;
#X obj 323 250 track~ 02_01 02_02 02_03 02_04;
#X obj 324 335 track_seq~ 04_01 04_02 04_03 04_04 04_05;
#X obj 440 125 stereo_loop~ 99_01;
#X obj 32 336 track~ 03_01 03_02 03_03 03_04;
#X obj 874 158 throw~ game_l;
#X obj 985 159 throw~ game_r;
#X obj 874 105 r start;
#X obj 929 106 r loop_start_4;
#X obj 874 133 oneshot_sync~ 02_u1;
#X obj 1024 106 r level_up_2;
#X obj 628 74 throw~ game_l;
#X obj 739 75 throw~ game_r;
#X obj 628 21 r start;
#X obj 683 22 r loop_start_4;
#X obj 628 49 oneshot_sync~ 01_u1;
#X obj 778 22 r level_up_1;
#X obj 874 75 throw~ game_l;
#X obj 985 76 throw~ game_r;
#X obj 874 22 r start;
#X obj 929 23 r loop_start_4;
#X obj 1024 23 r level_up_3;
#X obj 874 50 oneshot_sync~ 03_u1;
#X connect 1 0 4 0;
#X connect 2 0 9 0;
#X connect 3 0 10 0;
#X connect 5 0 66 0;
#X connect 5 0 66 1;
#X connect 9 0 8 0;
#X connect 10 0 8 0;
#X connect 13 0 69 0;
#X connect 14 0 60 0;
#X connect 14 1 61 0;
#X connect 17 0 70 0;
#X connect 18 0 70 1;
#X connect 19 0 73 0;
#X connect 22 0 67 0;
#X connect 22 0 67 1;
#X connect 25 0 32 0;
#X connect 26 0 31 0;
#X connect 27 0 34 0;
#X connect 28 0 33 0;
#X connect 29 0 69 1;
#X connect 30 0 73 1;
#X connect 35 0 67 1;
#X connect 36 0 66 1;
#X connect 37 0 71 0;
#X connect 38 0 71 1;
#X connect 42 0 41 0;
#X connect 43 0 69 2;
#X connect 44 0 73 2;
#X connect 45 0 70 2;
#X connect 46 0 71 2;
#X connect 49 0 72 0;
#X connect 50 0 72 1;
#X connect 51 0 1 0;
#X connect 51 0 52 0;
#X connect 55 0 68 0;
#X connect 56 0 68 2;
#X connect 57 0 68 1;
#X connect 60 0 0 0;
#X connect 61 0 0 1;
#X connect 63 0 62 0;
#X connect 64 0 47 0;
#X connect 65 0 48 0;
#X connect 66 0 6 0;
#X connect 66 1 7 0;
#X connect 66 2 36 0;
#X connect 67 0 23 0;
#X connect 67 1 24 0;
#X connect 67 2 35 0;
#X connect 68 0 53 0;
#X connect 68 1 54 0;
#X connect 69 0 11 0;
#X connect 69 1 12 0;
#X connect 70 0 15 0;
#X connect 70 1 16 0;
#X connect 71 0 39 0;
#X connect 71 1 40 0;
#X connect 71 2 58 0;
#X connect 72 0 64 0;
#X connect 72 1 65 0;
#X connect 73 0 20 0;
#X connect 73 1 21 0;
#X connect 76 0 78 0;
#X connect 77 0 78 1;
#X connect 78 0 74 0;
#X connect 78 1 75 0;
#X connect 79 0 78 2;
#X connect 82 0 84 0;
#X connect 83 0 84 1;
#X connect 84 0 80 0;
#X connect 84 1 81 0;
#X connect 85 0 84 2;
#X connect 88 0 91 0;
#X connect 89 0 91 1;
#X connect 90 0 91 2;
#X connect 91 0 86 0;
#X connect 91 1 87 0;
