#N canvas 30 39 1270 469 10;
#X obj 898 197 dac~;
#X obj 41 48 bng 15 250 50 0 empty empty empty 17 7 0 10 -262144 -1
-1;
#X obj 650 24 r to_mainmenu;
#X obj 741 24 r to_game;
#X obj 41 79 s start;
#X obj 39 114 r start;
#X obj 30 204 throw~ menu_l;
#X obj 128 206 throw~ menu_r;
#X obj 710 117 s main_cross;
#X msg 662 70 1 0 6000;
#X msg 739 69 0 1 6000;
#X obj 32 308 throw~ game_l;
#X obj 328 312 throw~ game_r;
#X obj 31 249 r start;
#N canvas 0 22 565 279 main_cross 0;
#X obj 112 49 crossfade~ o________________O;
#X obj 16 13 catch~ menu_l;
#X obj 105 12 catch~ menu_r;
#X obj 193 12 catch~ game_r;
#X obj 282 11 catch~ game_l;
#X obj 372 11 r main_cross;
#X obj 112 77 outlet~ l;
#X obj 283 77 outlet~ r;
#X connect 0 0 6 0;
#X connect 0 1 7 0;
#X connect 1 0 0 0;
#X connect 2 0 0 1;
#X connect 3 0 0 2;
#X connect 4 0 0 3;
#X connect 5 0 0 4;
#X restore 867 126 pd main_cross;
#X obj 442 306 throw~ game_l;
#X obj 739 308 throw~ game_r;
#X obj 442 244 r start;
#X obj 590 249 r level_up_3;
#X obj 35 352 r start;
#X obj 35 410 throw~ game_l;
#X obj 332 410 throw~ game_r;
#X obj 238 113 r start;
#X obj 229 203 throw~ game_l;
#X obj 327 205 throw~ game_r;
#X obj 202 40 bng 15 250 50 0 empty empty empty 17 7 0 10 -262144 -1
-1;
#X obj 120 40 bng 15 250 50 0 empty empty empty 17 7 0 10 -262144 -1
-1;
#X obj 369 41 bng 15 250 50 0 empty empty empty 17 7 0 10 -262144 -1
-1;
#X obj 287 44 bng 15 250 50 0 empty empty empty 17 7 0 10 -262144 -1
-1;
#X obj 179 253 r level_up_1;
#X obj 183 363 r level_up_2;
#X obj 120 62 s level_up_1;
#X obj 202 59 s level_up_2;
#X obj 287 63 s level_up_3;
#X obj 369 60 s level_up_4;
#X obj 398 124 bang;
#X obj 180 116 bang;
#X obj 440 362 r start;
#X obj 600 356 r level_up_4;
#X obj 440 422 throw~ game_l;
#X obj 600 422 throw~ game_r;
#X obj 440 384 track_seq~ drs001.wav drs002.wav drs003.wav drs004.wav
drs005.wav;
#X obj 35 386 track~ pad002.wav pad001.wav bas001.wav bas002.wav;
#X obj 466 61 s reset_all;
#X obj 466 39 bng 15 250 50 0 empty empty empty 17 7 0 10 -262144 -1
-1;
#X obj 329 251 r reset_all;
#X obj 332 361 r reset_all;
#X obj 738 242 r reset_all;
#X obj 761 357 r reset_all;
#X obj 485 197 throw~ game_l;
#X obj 580 198 throw~ game_r;
#X obj 494 117 r start;
#X obj 576 108 r hit;
#X obj 21 18 loadbang;
#X msg 61 42 \; pd dsp 1;
#X obj 874 321 oneshot_sync~ hit001.wav;
#X obj 874 348 throw~ game_l;
#X obj 969 348 throw~ game_r;
#X obj 874 293 r start;
#X obj 1001 293 r level_up_4;
#X obj 940 259 r loop_start_4;
#X obj 761 424 s loop_start_4;
#X msg 81 14 \; pd dsp 0;
#X obj 867 161 *~ 0.85;
#X obj 942 160 *~ 0.85;
#X obj 565 59 s hit;
#X obj 564 33 bng 15 250 50 0 empty empty empty 17 7 0 10 -262144 -1
-1;
#X obj 499 172 *~ 0.33;
#X obj 575 172 *~ 0.33;
#X obj 39 143 stereo_loop~ int001.wav;
#X obj 238 142 stereo_loop~ gam001.wav;
#X obj 498 147 stereo_loop~ sfx001.wav;
#X obj 442 272 track~ seq001.wav seq002.wav seq003.wav seq004.wav;
#X obj 31 278 track~ prc001.wav prc002.wav prc003.wav prc004.wav;
#X connect 1 0 4 0;
#X connect 2 0 9 0;
#X connect 3 0 10 0;
#X connect 5 0 69 0;
#X connect 5 0 69 1;
#X connect 9 0 8 0;
#X connect 10 0 8 0;
#X connect 13 0 73 0;
#X connect 14 0 63 0;
#X connect 14 1 64 0;
#X connect 17 0 72 0;
#X connect 18 0 72 1;
#X connect 19 0 42 0;
#X connect 22 0 70 0;
#X connect 22 0 70 1;
#X connect 25 0 32 0;
#X connect 26 0 31 0;
#X connect 27 0 34 0;
#X connect 28 0 33 0;
#X connect 29 0 73 1;
#X connect 30 0 42 1;
#X connect 35 0 70 1;
#X connect 36 0 69 1;
#X connect 37 0 41 0;
#X connect 38 0 41 1;
#X connect 41 0 39 0;
#X connect 41 1 40 0;
#X connect 41 2 61 0;
#X connect 42 0 20 0;
#X connect 42 1 21 0;
#X connect 44 0 43 0;
#X connect 45 0 73 2;
#X connect 46 0 42 2;
#X connect 47 0 72 2;
#X connect 48 0 41 2;
#X connect 51 0 71 0;
#X connect 52 0 71 1;
#X connect 53 0 1 0;
#X connect 53 0 54 0;
#X connect 55 0 56 0;
#X connect 55 1 57 0;
#X connect 58 0 55 0;
#X connect 59 0 55 2;
#X connect 60 0 55 1;
#X connect 63 0 0 0;
#X connect 64 0 0 1;
#X connect 66 0 65 0;
#X connect 67 0 49 0;
#X connect 68 0 50 0;
#X connect 69 0 6 0;
#X connect 69 1 7 0;
#X connect 69 2 36 0;
#X connect 70 0 23 0;
#X connect 70 1 24 0;
#X connect 70 2 35 0;
#X connect 71 0 67 0;
#X connect 71 1 68 0;
#X connect 72 0 15 0;
#X connect 72 1 16 0;
#X connect 73 0 11 0;
#X connect 73 1 12 0;
