#N canvas 624 157 771 589 10;
#X obj 21 23 inlet start;
#N canvas 0 22 450 278 (subpatch) 0;
#X array \$1-left 185220 float 2;
#X coords 0 1 185220 -1 200 140 1 0 0;
#X restore 536 38 graph;
#N canvas 0 22 450 278 (subpatch) 0;
#X array \$1-right 185220 float 2;
#X coords 0 1 185220 -1 200 140 1 0 0;
#X restore 536 214 graph;
#X obj 21 209 soundfiler;
#X obj 21 238 bang;
#X obj 30 418 outlet~ l;
#X obj 149 417 outlet~ r;
#X obj 106 114 pack s s s;
#X msg 21 181 read -resize \$1 \$2 \$3;
#X obj 30 52 t b b b;
#X obj 272 417 outlet loop_end;
#X obj 264 208 inlet retrig;
#X obj 128 89 symbol \$1-left;
#X obj 229 88 symbol \$1-right;
#X obj 24 308 tabplay~ \$1-left;
#X obj 141 307 tabplay~ \$1-right;
#X obj 60 87 symbol \$1.wav;
#X connect 0 0 9 0;
#X connect 4 0 14 0;
#X connect 4 0 15 0;
#X connect 7 0 8 0;
#X connect 8 0 3 0;
#X connect 9 0 16 0;
#X connect 9 1 12 0;
#X connect 9 2 13 0;
#X connect 11 0 4 0;
#X connect 12 0 7 1;
#X connect 13 0 7 2;
#X connect 14 0 5 0;
#X connect 15 0 6 0;
#X connect 15 1 10 0;
#X connect 16 0 7 0;
