#N canvas 136 278 1109 512 10;
#X obj 257 33 inlet start;
#X obj 268 232 throw~ \$0-l;
#X obj 370 243 throw~ \$0-l;
#X obj 509 249 throw~ \$0-l;
#X obj 333 285 throw~ \$0-r;
#X obj 451 278 throw~ \$0-r;
#X obj 591 252 throw~ \$0-r;
#X obj 246 103 stereo_loop~ \$2;
#X obj 776 82 bang;
#X obj 776 56 inlet switch_next;
#X obj 799 109 count_n 4;
#X floatatom 799 136 5 0 0 0 - - -;
#X obj 746 271 route 0 1 2 3;
#X obj 285 377 outlet~ l;
#X obj 366 380 outlet~ r;
#X obj 284 339 catch~ \$0-l;
#X obj 367 338 catch~ \$0-r;
#X obj 135 104 stereo_loop~ \$1;
#X obj 360 101 stereo_loop~ \$3;
#X obj 471 99 stereo_loop~ \$4;
#X obj 164 38 r \$0-res1;
#X obj 350 47 r \$0-res2;
#X obj 434 51 r \$0-res3;
#X obj 547 51 r \$0-res4;
#X obj 655 326 s \$0-res1;
#X obj 719 362 s \$0-res2;
#X obj 752 336 s \$0-res3;
#X obj 824 351 s \$0-res4;
#X floatatom 770 224 5 0 0 0 - - -;
#X obj 687 299 bang;
#X obj 726 303 bang;
#X obj 767 304 bang;
#X obj 820 313 bang;
#X obj 774 249 pack f 1;
#X obj 635 174 r \$0-res;
#X obj 9 105 stereo_loop~ \$5;
#X obj 98 232 throw~ \$0-l;
#X obj 189 235 throw~ \$0-r;
#X obj 100 135 s \$0-res;
#X obj 66 58 bang;
#X obj 764 205 f -1;
#X obj 937 96 inlet reset;
#X msg 884 139 -1;
#X obj 502 340 outlet main_reset;
#X obj 503 314 r \$0-res;
#X connect 0 0 7 0;
#X connect 0 0 17 0;
#X connect 0 0 18 0;
#X connect 0 0 19 0;
#X connect 0 0 35 1;
#X connect 0 0 35 0;
#X connect 7 0 1 0;
#X connect 7 1 4 0;
#X connect 8 0 10 0;
#X connect 9 0 8 0;
#X connect 10 0 11 0;
#X connect 11 0 40 1;
#X connect 12 0 29 0;
#X connect 12 1 30 0;
#X connect 12 2 31 0;
#X connect 12 3 32 0;
#X connect 15 0 13 0;
#X connect 16 0 14 0;
#X connect 17 0 36 0;
#X connect 17 1 37 0;
#X connect 18 0 2 0;
#X connect 18 1 5 0;
#X connect 19 0 3 0;
#X connect 19 1 6 0;
#X connect 20 0 17 1;
#X connect 21 0 7 1;
#X connect 22 0 18 1;
#X connect 23 0 19 1;
#X connect 28 0 33 0;
#X connect 29 0 24 0;
#X connect 30 0 25 0;
#X connect 31 0 26 0;
#X connect 32 0 27 0;
#X connect 33 0 12 0;
#X connect 34 0 40 0;
#X connect 35 0 36 0;
#X connect 35 1 37 0;
#X connect 35 2 38 0;
#X connect 35 2 39 0;
#X connect 39 0 35 1;
#X connect 40 0 28 0;
#X connect 41 0 42 0;
#X connect 42 0 40 1;
#X connect 44 0 43 0;
